# xmcd
#
# Track frame offsets: 
#        150
#        17537
#        34205
#        55224
#        70594
#        87979
#        99433
#        113391
#        126197
#        141625
#        159570
#        174700
#        191056
#        214737
#        230926
#        247646
#        262213
#        287029
#        310831
#        327082
#
# Disc length: 4523 seconds
#
# Revision: 0
# Processed by: cddbd v1.5.2PL0 Copyright (c) Steve Scherf et al.
# Submitted via: ExactAudioCopy v1.0b3
#
DISCID=2111a914
DTITLE=Various Artist - Dance Zone Vol. 1 - CD 2
DYEAR=1900
DGENRE=
TTITLE0=Tiesto Feat. Christian Burns - In The Dark (Carl B. Radio Mix)
TTITLE1=DJ Antoine - This Time (Radio Mix)
TTITLE2=Bob Sinclar - Everybody Movin'
TTITLE3=September - Looking For Love (Radio Version)
TTITLE4=Tom Novy - My House (Radio Edit)
TTITLE5=Royal Melody - (Love Is Like) Oxygen
TTITLE6=Liz Kay - When Love Becomes A Lie (Cascada Radio Mix)
TTITLE7=Pimp! Code - Wicked Body Moves (Radio Edit)
TTITLE8=Verano - Abfahrt
TTITLE9=Langenhagen - Hamburg Süd (Bangbros Radio Mix)
TTITLE10=Pedro Del Mar Feat. Emma Nelson - Feel (DJ Shog Rmx Edit)
TTITLE11=Kim Leoni - Again (Central Seven Radio Mix)
TTITLE12=DJ Sven-E and Reztax - Let's Go (Rocco Vs. Bass-T Radio Mix)
TTITLE13=DJ Analyzer and D-JMC - We Belong (Bassloverz United Radio Mix)
TTITLE14=Lunatic DJ's - Baby Love
TTITLE15=D-Tune - Kingz Of The Music (Radio Cut)
TTITLE16=Shane Vs. Deep Justice - Into Sound
TTITLE17=Felixx - Innocent Game
TTITLE18=Royal Gigolos - Tell It To My Heart (Sunny Burnett Sunset Mix
TTITLE18=)
TTITLE19=Asbo Feat. Katherine Ellis - Let The Beat Hit Em'
EXTD=
EXTT0=
EXTT1=
EXTT2=
EXTT3=
EXTT4=
EXTT5=
EXTT6=
EXTT7=
EXTT8=
EXTT9=
EXTT10=
EXTT11=
EXTT12=
EXTT13=
EXTT14=
EXTT15=
EXTT16=
EXTT17=
EXTT18=
EXTT19=
PLAYORDER=
